<svg width="17" height="17" viewBox="0 0 17 17" fill="none" xmlns="http://www.w3.org/2000/svg">
<path fill-rule="evenodd" clip-rule="evenodd" d="M4.95851 2.302C5.25191 2.302 5.48976 2.53985 5.48976 2.83325V4.01449C7.49274 3.83611 9.50761 3.83611 11.5106 4.01449V2.83325C11.5106 2.53985 11.7484 2.302 12.0418 2.302C12.3352 2.302 12.5731 2.53985 12.5731 2.83325V4.11989C13.6307 4.26943 14.4662 5.10592 14.6076 6.17293L14.6689 6.63543C14.9268 8.58075 14.9045 10.553 14.6028 12.492C14.4533 13.4525 13.673 14.1903 12.7056 14.2857L11.8605 14.369C9.6257 14.5894 7.37461 14.5894 5.13979 14.369L4.29475 14.2857C3.32734 14.1903 2.547 13.4525 2.39754 12.492C2.09582 10.553 2.07355 8.58075 2.33141 6.63544L2.39271 6.17293C2.53415 5.10591 3.36967 4.26941 4.42726 4.11989V2.83325C4.42726 2.53985 4.66511 2.302 4.95851 2.302ZM5.27383 5.10191C7.41951 4.89031 9.5808 4.89031 11.7265 5.1019L12.3678 5.16515C12.9818 5.2257 13.4732 5.70097 13.5543 6.31254L13.6156 6.77505C13.637 6.93663 13.6564 7.0984 13.6738 7.26033H3.32655C3.34389 7.0984 3.36327 6.93663 3.38469 6.77505L3.446 6.31255C3.52707 5.70097 4.01853 5.2257 4.63247 5.16515L5.27383 5.10191ZM3.2421 8.32283C3.17255 9.66022 3.24107 11.0026 3.4474 12.3286C3.52237 12.8104 3.91378 13.1805 4.39902 13.2283L5.24406 13.3116C7.40954 13.5252 9.59077 13.5252 11.7562 13.3116L12.6013 13.2283C13.0865 13.1805 13.4779 12.8104 13.5529 12.3286C13.7592 11.0026 13.8278 9.66022 13.7582 8.32283H3.2421Z" fill="#F9DE71"/>
</svg>
