<svg width="27" height="27" viewBox="0 0 27 27" fill="none" xmlns="http://www.w3.org/2000/svg">
<path fill-rule="evenodd" clip-rule="evenodd" d="M7.87522 3.65625C8.34121 3.65625 8.71897 4.03401 8.71897 4.5V6.37608C11.9002 6.09278 15.1003 6.09278 18.2815 6.37609V4.5C18.2815 4.03401 18.6592 3.65625 19.1252 3.65625C19.5912 3.65625 19.969 4.03401 19.969 4.5V6.54349C21.6486 6.78099 22.9756 8.10953 23.2002 9.80419L23.2976 10.5388C23.7072 13.6284 23.6718 16.7607 23.1926 19.8403C22.9552 21.3659 21.7158 22.5376 20.1794 22.6892L18.8372 22.8215C15.2878 23.1715 11.7126 23.1715 8.16314 22.8215L6.82101 22.6892C5.28455 22.5376 4.04518 21.3659 3.8078 19.8403C3.32859 16.7607 3.29322 13.6284 3.70276 10.5388L3.80013 9.80419C4.02477 8.10951 5.35176 6.78095 7.03147 6.54348V4.5C7.03147 4.03401 7.40923 3.65625 7.87522 3.65625ZM8.37603 8.10316C11.7839 7.76709 15.2165 7.76709 18.6243 8.10315L19.643 8.20361C20.6181 8.29977 21.3986 9.05461 21.5274 10.0259L21.6247 10.7605C21.6588 11.0171 21.6895 11.2741 21.7171 11.5312H5.28329C5.31083 11.2741 5.34161 11.0171 5.37563 10.7605L5.473 10.0259C5.60175 9.05461 6.38231 8.29977 7.3574 8.20361L8.37603 8.10316ZM5.14916 13.2188C5.0387 15.3428 5.14752 17.4749 5.47523 19.5809C5.5943 20.3461 6.21595 20.9338 6.98662 21.0098L8.32875 21.1422C11.768 21.4813 15.2323 21.4813 18.6716 21.1422L20.0138 21.0098C20.7844 20.9338 21.4061 20.3461 21.5251 19.5809C21.8529 17.4749 21.9617 15.3428 21.8512 13.2188H5.14916Z" fill="white" fill-opacity="0.85"/>
</svg>
