<svg width="21" height="17" viewBox="0 0 21 17" fill="none" xmlns="http://www.w3.org/2000/svg">
<path d="M20.9154 6.41797V2.2513C20.9154 1.10547 19.9779 0.167969 18.832 0.167969H2.16536C1.01953 0.167969 0.0924479 1.10547 0.0924479 2.2513V6.41797C1.23828 6.41797 2.16536 7.35547 2.16536 8.5013C2.16536 9.64713 1.23828 10.5846 0.0820312 10.5846V14.7513C0.0820312 15.8971 1.01953 16.8346 2.16536 16.8346H18.832C19.9779 16.8346 20.9154 15.8971 20.9154 14.7513V10.5846C19.7695 10.5846 18.832 9.64713 18.832 8.5013C18.832 7.35547 19.7695 6.41797 20.9154 6.41797ZM18.832 4.89713C17.5924 5.61588 16.7487 6.97005 16.7487 8.5013C16.7487 10.0325 17.5924 11.3867 18.832 12.1055V14.7513H2.16536V12.1055C3.40495 11.3867 4.2487 10.0325 4.2487 8.5013C4.2487 6.95963 3.41537 5.61588 2.17578 4.89713L2.16536 2.2513H18.832V4.89713ZM7.44661 12.668L10.4987 10.7096L13.5508 12.668L12.6237 9.16797L15.4258 6.8763L11.8112 6.65755L10.4987 3.29297L9.17578 6.64713L5.5612 6.86588L8.36328 9.15755L7.44661 12.668Z" fill="white" fill-opacity="0.75"/>
</svg>
